<?xml version="1.0" encoding="utf-8"?>
<!-- Generator: Adobe Illustrator 27.0.0, SVG Export Plug-In . SVG Version: 6.00 Build 0)  -->
<svg version="1.1" id="Layer_1" xmlns="http://www.w3.org/2000/svg" xmlns:xlink="http://www.w3.org/1999/xlink" x="0px" y="0px"
	 viewBox="0 0 595.28 841.89" style="enable-background:new 0 0 595.28 841.89;" xml:space="preserve">
<style type="text/css">
	.st0{fill:#7389C5;}
	.st1{fill:#FDCEAD;}
	.st2{fill:#77C3AA;}
	.st3{fill:#E0DFE5;}
	.st4{fill:#A02B31;}
	.st5{fill:#EDEDEE;}
	.st6{fill:#F1B6AA;}
	.st7{fill:#232323;}
	.st8{fill:#231F20;}
	.st9{fill:#BCD6F0;}
	.st10{fill:#838383;}
	.st11{fill:none;stroke:#231F20;stroke-miterlimit:10;}
	.st12{fill:#362E2A;}
	.st13{fill:#FFFFFF;}
</style>
<g id="XMLID_46_">
	<circle id="XMLID_51_" class="st0" cx="307.51" cy="404.35" r="156"/>
	<rect id="XMLID_176_" x="298.13" y="357.17" class="st1" width="18.89" height="41.44"/>
	<path id="XMLID_175_" class="st1" d="M384.42,269.81c-0.97-0.15-1.94-0.17-2.89-0.09c-1.56-61.39-34.06-82.84-73.96-82.84
		c-39.9,0-72.41,20.87-73.96,82.84c-0.95-0.08-1.92-0.06-2.89,0.09c-8.33,1.26-13.81,10.6-12.26,20.84
		c1.56,10.25,9.57,17.53,17.89,16.27c0.22-0.03,0.44-0.1,0.65-0.14c9.5,39.74,37.5,55.08,70.56,55.08s61.06-15.34,70.56-55.08
		c0.22,0.05,0.43,0.11,0.65,0.14c8.33,1.26,16.34-6.02,17.89-16.27C398.24,280.41,392.75,271.07,384.42,269.81z"/>
	<path id="XMLID_174_" class="st2" d="M307.57,381.03c-26.78,0-48.48,6.52-48.48,14.56v148.19h96.96V395.59
		C356.06,387.55,334.35,381.03,307.57,381.03z"/>
	<path id="XMLID_170_" class="st3" d="M316.18,557.86h-17.2c-0.54,0-0.98-0.44-0.98-0.98v-13.3c0-0.54,0.44-0.98,0.98-0.98h17.2
		c0.54,0,0.98,0.44,0.98,0.98v13.3C317.15,557.42,316.72,557.86,316.18,557.86z"/>
	<polygon id="XMLID_169_" class="st4" points="307.57,381.03 307.57,381.03 307.57,381.03 307.57,381.03 307.57,381.03 
		302.66,388.74 304.19,395.49 310.96,395.49 312.49,388.74 	"/>
	<polygon id="XMLID_168_" class="st4" points="322.17,522.08 310.95,395.49 304.2,395.49 292.98,522.08 307.57,531.75 	"/>
	<path id="XMLID_83_" class="st5" d="M302.82,557.77v-94.15l-7.53-82.18c-22.93,1.54-39.98,7.29-39.98,14.15v153.29
		C270.24,554.19,286.2,557.28,302.82,557.77z"/>
	<path id="XMLID_89_" class="st5" d="M359.83,548.84V395.59c0-6.86-17.04-12.62-39.98-14.15l-7.53,82.18v94.15
		C328.95,557.27,344.91,554.16,359.83,548.84z"/>
	<polygon id="XMLID_164_" class="st3" points="319.85,381.03 312.33,463.62 328.45,421.79 323.76,417.68 328.45,416.36 
		324.49,381.44 	"/>
	<polygon id="XMLID_163_" class="st3" points="295.29,381.03 302.82,463.62 286.69,421.79 291.38,417.68 286.69,416.36 
		290.65,381.44 	"/>
	<path id="XMLID_161_" class="st3" d="M359.83,427.65c21.69,2.41,55.11,7.38,74.48-7.04c11.97-8.92,4.08-67.99,4.08-67.99
		l-19.34-1.67c0,0,7.64,43.88-0.57,53.24c-9.12,10.39-58.65-8.6-58.65-8.6V427.65z"/>
	<path id="XMLID_159_" class="st1" d="M436.69,352.48c0,0,6.91-5.39,8.03-23.69c0.43-6.99-28.6-8.73-29.22-5.88
		c-1.58,7.24,1.49,19.42,5.33,28.37L436.69,352.48z"/>
	<path id="XMLID_158_" class="st1" d="M416.43,318.99c-1.71,2.98-1.74,11.29,2.94,12.81c4.68,1.51,17.94,2.18,21.58,1.51
		s5.12-10.57,3.63-13.2C443.01,317.35,419.68,313.32,416.43,318.99z"/>
	<path id="XMLID_157_" class="st1" d="M420.83,351.1c0,0-9.38-15.53-25.81-18.75c0,0,2.35-15.84,20.23,0c0,0,14.66-6.16,14.96,8.21
		v11.35L420.83,351.1z"/>
	<path id="XMLID_182_" class="st6" d="M440.95,332.4c-3.63,0.67-16.9,0-21.58-1.51c-2.78-0.9-3.89-4.19-3.98-7.34
		c-0.11,3.4,0.94,7.26,3.98,8.25c4.68,1.51,17.94,2.18,21.58,1.51c2.8-0.52,4.32-6.5,4.19-10.42
		C445.03,326.77,443.53,331.92,440.95,332.4z"/>
	<ellipse id="XMLID_156_" class="st7" cx="268.44" cy="286.7" rx="8.11" ry="12.22"/>
	<path id="XMLID_155_" class="st7" d="M256.92,264.43c0,0,7.14-11.19,17.29-5.25c0,0,4.07-3.6-1.15-5.75
		C267.85,251.29,262.75,253.7,256.92,264.43z"/>
	<ellipse id="XMLID_154_" class="st7" cx="346.71" cy="286.7" rx="8.11" ry="12.22"/>
	<path id="XMLID_153_" class="st7" d="M358.23,264.43c0,0-7.14-11.19-17.29-5.25c0,0-4.07-3.6,1.15-5.75
		C347.3,251.29,352.4,253.7,358.23,264.43z"/>
	<g id="XMLID_146_">
		<g id="XMLID_150_">
			<path id="XMLID_152_" class="st8" d="M291.56,465.13l-0.7-3.49c0.54-0.18,5.36-2.01,4.21-9.93
				c-2.12-14.58-6.96-36.92-11.56-36.92v-3.6c8.09,0,12.9,29.66,14.39,39.88C299.23,460.2,294.34,464.26,291.56,465.13z"/>
			<path id="XMLID_151_" class="st8" d="M292.28,463.38c0.46,2-0.01,3.93-1.94,4.62c-1.93,0.69-4.59-0.12-5.05-2.13
				c-0.46-2,1.46-4.45,3.4-5.13C290.61,460.05,291.82,461.38,292.28,463.38z"/>
		</g>
		<g id="XMLID_147_">
			<path id="XMLID_149_" class="st8" d="M275.47,465.13l0.7-3.49c-0.54-0.18-5.36-2.01-4.21-9.93c2.12-14.58,6.96-36.92,11.56-36.92
				v-3.6c-8.09,0-12.9,29.66-14.39,39.88C267.8,460.2,272.7,464.26,275.47,465.13z"/>
			<path id="XMLID_148_" class="st8" d="M274.75,463.38c-0.46,2,0.01,3.93,1.94,4.62c1.93,0.69,4.59-0.12,5.05-2.13
				c0.46-2-1.46-4.45-3.4-5.13C276.42,460.05,275.21,461.38,274.75,463.38z"/>
		</g>
	</g>
	<g id="XMLID_162_">
		<path id="XMLID_165_" class="st8" d="M298.13,376.76c-15.36,8.95-15.78,34.11-15.79,34.4l2.35,0.02c0-0.27,0.4-22.74,13.44-31.63
			V376.76z"/>
		<path id="XMLID_166_" class="st8" d="M323.04,378.72c-1.84-1.66-3.86-2.89-6.02-3.74v2.53c1.59,0.73,3.07,1.7,4.45,2.95
			c12.13,10.95,13.44,38.62,13.44,50.01h2.35C337.25,418.77,335.87,390.3,323.04,378.72z"/>
	</g>
	<g id="XMLID_32_">
		<polygon id="XMLID_172_" class="st9" points="318.34,374.94 307.57,381.03 313.65,390.56 320.24,381.53 		"/>
		<polygon id="XMLID_171_" class="st9" points="296.81,374.94 307.57,381.03 301.5,390.56 294.91,381.53 		"/>
	</g>
	<circle id="XMLID_143_" class="st10" cx="336.08" cy="437.29" r="6.82"/>
	<circle id="XMLID_142_" class="st11" cx="336.08" cy="437.29" r="2.86"/>
	<path id="XMLID_141_" class="st8" d="M327.69,328.92L327.69,328.92c0,1.74-7.1,5.13-20.12,5.13c-13.02,0-20.12-3.39-20.12-5.13l0,0
		h-1.64v0c0,5.92,14.23,7.48,21.76,7.48c7.53,0,21.76-1.56,21.76-7.48v0H327.69z"/>
	<path id="XMLID_76_" class="st12" d="M373.74,216.47c1.47-20.73-25.1-30.11-36.89-34.42c-21.42-7.82-38.82-0.81-38.82-0.81
		l-3.59-5.79c-16-3.03-19.87,9.02-19.87,9.02l-3.84-6.27c-5.26,0.43-9.2,5.81-9.12,9.91l-5.03-2.53
		c-20.12,19.72-15.16,30.88-15.16,30.88s-15.38,0.74-7.79,53.25l1.32,8.83l4.25-3.03c0,0,7.08-27.9,3.64-47.92
		c0,0,21.32-12.74,64.75-12.74s64.75,12.74,64.75,12.74c-3.44,20.02,3.64,47.92,3.64,47.92l4.25,3.03l1.32-8.83
		C389.12,217.21,373.74,216.47,373.74,216.47z"/>
	<path id="XMLID_107_" class="st3" d="M243.82,544.28c0.63-14.57,1.47-33.62,1.93-41.63c0.91-15.87,9.57-48.38,9.57-48.38v-59.04
		c-15.91,25.51-23.57,72.76-26.03,92.55c-1.8,14.55-2.69,34.09-3.11,47.2C231.83,538.44,237.72,541.55,243.82,544.28z"/>
	
		<ellipse id="XMLID_144_" transform="matrix(0.9251 -0.3796 0.3796 0.9251 -80.3838 153.9236)" class="st13" cx="350.09" cy="280.78" rx="2.4" ry="3.52"/>
	
		<ellipse id="XMLID_111_" transform="matrix(0.9251 -0.3796 0.3796 0.9251 -86.2419 124.2161)" class="st13" cx="271.84" cy="280.78" rx="2.4" ry="3.52"/>
</g>
</svg>
