<?xml version="1.0" encoding="utf-8"?>
<!-- Generator: Adobe Illustrator 27.0.0, SVG Export Plug-In . SVG Version: 6.00 Build 0)  -->
<svg version="1.1" id="Layer_1" xmlns="http://www.w3.org/2000/svg" xmlns:xlink="http://www.w3.org/1999/xlink" x="0px" y="0px"
	 viewBox="0 0 595.28 841.89" style="enable-background:new 0 0 595.28 841.89;" xml:space="preserve">
<style type="text/css">
	.st0{fill:#FCC7A0;}
	.st1{fill:#804A33;}
	.st2{fill:#66ABA0;}
	.st3{fill:#4B4A50;}
	.st4{fill:#FFFFFF;stroke:#231F20;stroke-miterlimit:10;}
	.st5{fill:#E0DFE5;}
	.st6{fill:#A02B31;}
	.st7{fill:#181917;}
	.st8{fill:#EDEDEE;}
	.st9{fill:#D28D84;}
	.st10{fill:#232323;}
	.st11{fill:#473A3E;}
	.st12{fill:#FFFFFF;}
	.st13{fill:#231F20;}
	.st14{fill:#BCD6F0;}
	.st15{fill:#838383;}
	.st16{fill:none;stroke:#231F20;stroke-miterlimit:10;}
</style>
<g id="XMLID_43_">
	
		<rect id="XMLID_5_" x="296.27" y="260.21" transform="matrix(-1 -4.482071e-11 4.482071e-11 -1 607.3089 552.8287)" class="st0" width="14.77" height="32.41"/>
	<path id="XMLID_8_" class="st0" d="M243.55,191.89c0.76-0.12,1.52-0.13,2.26-0.07c1.22-48.02,26.64-64.79,57.84-64.79
		c31.21,0,56.63,16.33,57.84,64.79c0.75-0.06,1.5-0.04,2.26,0.07c6.51,0.99,10.8,8.29,9.59,16.3c-1.22,8.01-7.48,13.71-13.99,12.72
		c-0.17-0.03-0.34-0.08-0.51-0.11c-7.43,31.08-29.33,43.08-55.19,43.08c-25.86,0-47.75-12-55.19-43.08
		c-0.17,0.04-0.34,0.08-0.51,0.11c-6.51,0.99-12.78-4.71-13.99-12.72C232.75,200.17,237.04,192.87,243.55,191.89z"/>
	<path id="XMLID_7_" class="st1" d="M252.71,152.12c8.87-34.1,51.83-29.66,72.32-27.06c20.49,2.6,37.31,1.07,37.31,1.07
		c-0.61,5.5-4.13,7.19-4.13,7.19l21.25,2.45c-2.91,12.84-17.12,15.44-17.12,15.44l8.1,2.6c-3.26,2-6.73,3.75-10.34,5.26
		c2.09,7.51,3.57,18.42,1.5,32.75v3.63h-3.08c0,0-5.4-11.5-5.77-33.69c-41.79,13.44-97.89,1.21-97.89,1.21
		c0,22.63-5.81,32.47-5.81,32.47h-3.13v-3.63C239.58,154.45,252.71,152.12,252.71,152.12z"/>
	<path id="XMLID_10_" class="st2" d="M303.65,278.87c20.94,0,37.92,5.1,37.92,11.39v115.9h-75.84v-115.9
		C265.74,283.97,282.71,278.87,303.65,278.87z"/>
	<path id="XMLID_11_" class="st3" d="M303.65,413.11h37.92v207.94h-17.78c0,0-6.33-162.07-20.14-162.07
		c-13.81,0-20.14,162.07-20.14,162.07h-17.78V413.11H303.65z"/>
	
		<rect id="XMLID_6_" x="265.74" y="406.16" transform="matrix(-1 -4.485313e-11 4.485313e-11 -1 607.3089 819.2706)" class="st4" width="75.84" height="6.96"/>
	<path id="XMLID_13_" class="st5" d="M297.14,415.6h13.03c0.54,0,0.98-0.44,0.98-0.98v-9.97c0-0.54-0.44-0.98-0.98-0.98h-13.03
		c-0.54,0-0.98,0.44-0.98,0.98v9.97C296.16,415.16,296.6,415.6,297.14,415.6z"/>
	<polygon id="XMLID_16_" class="st6" points="303.65,278.87 303.65,278.87 303.65,278.87 303.65,278.87 303.65,278.87 307.5,284.9 
		306.3,290.18 301.01,290.18 299.81,284.9 	"/>
	<polygon id="XMLID_17_" class="st6" points="292.24,389.19 301.02,290.18 306.29,290.18 315.07,389.19 303.65,396.75 	"/>
	<path id="XMLID_14_" class="st7" d="M341.57,621.05c0,0,33.9-4.89,27.47,19.26c-16.21,5.81-41.38-5.99-46.94-8.72
		c0,0,0-8.26,1.68-10.55H341.57z"/>
	<path id="XMLID_15_" class="st7" d="M265.74,621.05c0,0-33.9-4.89-27.47,19.26c16.21,5.81,41.38-5.99,46.94-8.72
		c0,0,0-8.26-1.68-10.55H265.74z"/>
	<g id="XMLID_18_">
		<path id="XMLID_19_" class="st8" d="M307.37,343.47l5.89-64.28c17.94,1.2,31.27,5.7,31.27,11.07v226.82h-37.15V343.47z"/>
		<path id="XMLID_21_" class="st8" d="M294.05,279.19l5.89,64.28v173.62h-37.15V290.26C262.78,284.89,276.11,280.39,294.05,279.19z"
			/>
	</g>
	<polygon id="XMLID_20_" class="st5" points="294.05,278.87 299.94,343.47 287.32,310.75 290.99,307.54 287.32,306.51 
		290.42,279.19 	"/>
	<polygon id="XMLID_22_" class="st5" points="313.26,278.87 307.37,343.47 319.99,310.75 316.32,307.54 319.99,306.51 
		316.89,279.19 	"/>
	<path id="XMLID_23_" class="st5" d="M344.52,289.98c12.44,19.95,33.08,57.18,33.08,72.78s-12.03,48.17-12.03,48.17l-10.38-14.18
		c0,0,10.03-24.31,8.5-35.01c-1.53-10.7-19.17-25.59-19.17-25.59V289.98z"/>
	<path id="XMLID_24_" class="st5" d="M262.78,315.34c-16.97,1.89-43.1,5.77-58.25-5.5c-9.37-6.97-3.19-53.18-3.19-53.18l15.13-1.31
		c0,0-5.98,34.32,0.44,41.64c7.13,8.13,45.87-6.73,45.87-6.73V315.34z"/>
	<path id="XMLID_25_" class="st0" d="M356.06,397.93c0,0-9.04,0.6-6.87,3.87c0,0-5.68,2.29-5.68,5.73c0,3.44,4.66,12.84,9.94,11.16
		c7.39-2.36,9.2-11.77,9.2-11.77L356.06,397.93z"/>
	<path id="XMLID_27_" class="st0" d="M202.68,256.54c0,0-5.4-4.21-6.28-18.53c-0.34-5.47,22.37-6.83,22.86-4.6
		c1.23,5.66-1.16,15.19-4.17,22.19L202.68,256.54z"/>
	<path id="XMLID_26_" class="st0" d="M218.52,230.35c1.34,2.33,1.36,8.83-2.3,10.02c-3.66,1.18-14.03,1.71-16.87,1.18
		s-4.01-8.27-2.84-10.33C197.73,229.07,215.98,225.92,218.52,230.35z"/>
	<path id="XMLID_28_" class="st0" d="M215.08,255.47c0,0,7.34-12.14,20.18-14.67c0,0-1.83-12.38-15.82,0c0,0-11.47-4.82-11.7,6.42
		v8.88L215.08,255.47z"/>
	<path id="XMLID_95_" class="st9" d="M216.22,239.53c-3.66,1.18-14.03,1.71-16.87,1.18c-2-0.37-3.17-4.33-3.28-7.36
		c-0.11,3.07,1.08,7.79,3.28,8.19c2.84,0.52,13.21,0,16.87-1.18c2.4-0.78,3.21-3.83,3.11-6.51
		C219.24,236.3,218.37,238.83,216.22,239.53z"/>
	<ellipse id="XMLID_29_" class="st10" cx="334.26" cy="205.1" rx="6.35" ry="9.56"/>
	<path id="XMLID_30_" class="st10" d="M343.27,187.68c0,0-5.58-8.75-13.53-4.1c0,0-3.18-2.82,0.9-4.5
		C334.72,177.4,338.71,179.29,343.27,187.68z"/>
	<ellipse id="XMLID_31_" class="st10" cx="273.05" cy="205.1" rx="6.35" ry="9.56"/>
	<path id="XMLID_33_" class="st10" d="M264.04,187.68c0,0,5.58-8.75,13.53-4.1c0,0,3.18-2.82-0.9-4.5
		C272.59,177.4,268.6,179.29,264.04,187.68z"/>
	<path id="XMLID_35_" class="st11" d="M320.37,236.4c0.05,0.39,0.08,0.79,0.08,1.19c0,6.59-7.52,11.93-16.8,11.93
		c-9.28,0-16.8-5.34-16.8-11.93c0-0.4,0.03-0.8,0.08-1.19H320.37z"/>
	<path id="XMLID_36_" class="st12" d="M320.37,236.4c0.05,0.39,0.08,0.79,0.08,1.19c0,0.46-0.05,0.91-0.12,1.36
		c-4.05,0.8-10.16,1.32-16.99,1.32c-6.49,0-12.3-0.46-16.34-1.2c-0.08-0.49-0.14-0.98-0.14-1.48c0-0.4,0.03-0.8,0.08-1.19H320.37z"
		/>
	<g id="XMLID_34_">
		<g id="XMLID_40_">
			<path id="XMLID_38_" class="st13" d="M316.18,344.64l0.55-2.73c-0.43-0.14-4.2-1.57-3.29-7.77c1.66-11.4,5.44-28.88,9.04-28.88
				v-2.82c-6.33,0-10.09,23.2-11.25,31.19C310.18,340.79,314.01,343.96,316.18,344.64z"/>
			<path id="XMLID_39_" class="st13" d="M315.61,343.28c-0.36,1.57,0.01,3.07,1.52,3.61c1.51,0.54,3.59-0.09,3.95-1.66
				c0.36-1.57-1.15-3.48-2.66-4.02C316.92,340.68,315.97,341.71,315.61,343.28z"/>
		</g>
		<g id="XMLID_37_">
			<path id="XMLID_41_" class="st13" d="M328.76,344.64l-0.55-2.73c0.43-0.14,4.2-1.57,3.29-7.77c-1.66-11.4-5.44-28.88-9.04-28.88
				v-2.82c6.33,0,10.09,23.2,11.25,31.19C334.76,340.79,330.93,343.96,328.76,344.64z"/>
			<path id="XMLID_42_" class="st13" d="M329.33,343.28c0.36,1.57-0.01,3.07-1.52,3.61c-1.51,0.54-3.59-0.09-3.95-1.66
				s1.15-3.48,2.66-4.02C328.02,340.68,328.97,341.71,329.33,343.28z"/>
		</g>
	</g>
	<g id="XMLID_179_">
		<path id="XMLID_180_" class="st13" d="M296.27,274.14c-1.69,0.66-3.27,1.62-4.71,2.92c-10.03,9.05-11.12,31.32-11.12,40.47h1.83
			c0-8.91,1.02-30.55,10.51-39.11c1.08-0.97,2.24-1.74,3.48-2.3V274.14z"/>
		<path id="XMLID_181_" class="st13" d="M311.04,275.54v2.18c10.2,6.95,10.51,24.53,10.51,24.74l1.83-0.02
			C323.39,302.21,323.05,282.54,311.04,275.54z"/>
	</g>
	<g id="XMLID_4_">
		<polygon id="XMLID_9_" class="st14" points="295.24,274.11 303.65,278.87 298.91,286.32 293.75,279.26 		"/>
		<polygon id="XMLID_12_" class="st14" points="312.07,274.11 303.65,278.87 308.4,286.32 313.56,279.26 		"/>
	</g>
	<circle id="XMLID_44_" class="st15" cx="281.36" cy="322.87" r="5.33"/>
	<circle id="XMLID_45_" class="st16" cx="281.36" cy="322.87" r="2.24"/>
	
		<ellipse id="XMLID_177_" transform="matrix(0.9251 -0.3796 0.3796 0.9251 -51.4011 142.9587)" class="st12" cx="336.78" cy="201.81" rx="2.34" ry="3.42"/>
	
		<ellipse id="XMLID_178_" transform="matrix(0.9251 -0.3796 0.3796 0.9251 -55.9834 119.7212)" class="st12" cx="275.57" cy="201.81" rx="2.34" ry="3.42"/>
</g>
</svg>
