<?xml version="1.0" encoding="utf-8"?>
<!-- Generator: Adobe Illustrator 27.0.0, SVG Export Plug-In . SVG Version: 6.00 Build 0)  -->
<svg version="1.1" id="Layer_1" xmlns="http://www.w3.org/2000/svg" xmlns:xlink="http://www.w3.org/1999/xlink" x="0px" y="0px"
	 viewBox="0 0 595.28 841.89" style="enable-background:new 0 0 595.28 841.89;" xml:space="preserve">
<style type="text/css">
	.st0{fill:#7389C5;}
	.st1{fill:#FCC7A0;}
	.st2{fill:#77C3AA;}
	.st3{fill:#E0DFE5;}
	.st4{fill:#A02B31;}
	.st5{fill:#EDEDEE;}
	.st6{fill:#D28D84;}
	.st7{fill:#232323;}
	.st8{fill:#231F20;}
	.st9{fill:#BCD6F0;}
	.st10{fill:#838383;}
	.st11{fill:none;stroke:#231F20;stroke-miterlimit:10;}
	.st12{fill:#43413F;}
	.st13{fill:#544A3E;}
	.st14{fill:#C22E40;}
	.st15{fill:#FFFFFF;}
</style>
<g id="XMLID_1_">
	<circle id="XMLID_48_" class="st0" cx="311.33" cy="407.73" r="170.03"/>
	<rect id="XMLID_94_" x="297.86" y="360.69" class="st1" width="20.59" height="45.17"/>
	<path id="XMLID_93_" class="st1" d="M391.91,265.48c-1.06-0.16-2.11-0.18-3.15-0.1c-1.7-66.92-37.13-90.29-80.61-90.29
		c-43.49,0-78.92,22.75-80.61,90.29c-1.04-0.08-2.09-0.06-3.15,0.1c-9.07,1.38-15.06,11.55-13.36,22.72
		c1.7,11.17,10.43,19.11,19.5,17.73c0.24-0.04,0.47-0.1,0.71-0.15c10.36,43.31,40.87,60.03,76.91,60.03s66.55-16.72,76.91-60.03
		c0.24,0.05,0.47,0.12,0.71,0.15c9.07,1.38,17.81-6.56,19.5-17.73C406.97,277.03,400.99,266.86,391.91,265.48z"/>
	<path id="XMLID_91_" class="st2" d="M308.15,386.7c-29.18,0-52.84,7.11-52.84,15.87v161.51h105.69V402.57
		C360.99,393.81,337.34,386.7,308.15,386.7z"/>
	<path id="XMLID_86_" class="st3" d="M317.62,577.24h-18.93c-0.54,0-0.98-0.44-0.98-0.98V561.6c0-0.54,0.44-0.98,0.98-0.98h18.93
		c0.54,0,0.98,0.44,0.98,0.98v14.67C318.59,576.81,318.15,577.24,317.62,577.24z"/>
	<polygon id="XMLID_85_" class="st4" points="308.15,386.7 308.15,386.7 308.15,386.7 308.15,386.7 308.15,386.7 302.8,395.1 
		304.46,402.47 311.84,402.47 313.5,395.1 	"/>
	<polygon id="XMLID_84_" class="st4" points="324.06,540.44 311.83,402.47 304.47,402.47 292.25,540.44 308.15,550.98 	"/>
	<path id="XMLID_80_" class="st5" d="M302.97,575.94v-99.22l-8.2-89.57c-25,1.68-43.57,7.95-43.57,15.43v162.21
		C267.4,571.07,284.8,574.92,302.97,575.94z"/>
	<path id="XMLID_73_" class="st5" d="M365.11,567.95V402.57c0-7.48-18.58-13.75-43.57-15.43l-8.2,89.58v99.5
		C331.4,576.15,348.79,573.24,365.11,567.95z"/>
	<polygon id="XMLID_78_" class="st3" points="321.53,386.7 313.33,476.72 330.91,431.13 325.8,426.65 330.91,425.22 326.59,387.15 	
		"/>
	<polygon id="XMLID_77_" class="st3" points="294.77,386.7 302.97,476.72 285.39,431.13 290.51,426.65 285.39,425.22 289.71,387.15 
			"/>
	<path id="XMLID_75_" class="st3" d="M365.11,444.91c12.19,15.71,29.18,34.09,40.45,37.43c17.08,5.06,29.6-79.86,29.6-79.86
		l-16.53-5.38c0,0-7.61,60.62-13.07,60.88c-6.77,0.33-40.45-55.4-40.45-55.4L365.11,444.91z"/>
	<path id="XMLID_90_" class="st1" d="M424.32,365.88c12.94-42.23-5.48-33.31-5.48-33.31c0.88,7.93-2.98,34.49-2.98,34.49
		c-1.72,7.89,0.2,20.81,4.39,30.56l13.93,4.53c0,0,11.33-10.08,12.41-27.81C446.91,369.28,433.53,366.36,424.32,365.88z"/>
	<path id="XMLID_72_" class="st1" d="M424.54,362.34c-1.41,3.25-3.84,12.1,0.04,13.75c3.87,1.65,14.96,3.66,17.96,2.93
		s5.86-9.98,4.63-12.85C445.87,363.17,427.23,356.16,424.54,362.34z"/>
	<path id="XMLID_110_" class="st6" d="M442.72,377.71c-3,0.73-14.09-1.28-17.96-2.93c-1.93-0.82-2.29-3.43-2-6.24
		c-0.55,3.28-0.41,6.61,1.82,7.56c3.87,1.65,14.96,3.66,17.96,2.93c2.29-0.56,4.5-6.08,4.86-9.94
		C446.73,372.78,444.76,377.21,442.72,377.71z"/>
	<path id="XMLID_71_" class="st1" d="M420.26,397.62c0,0-5.36-8.2-9.75-15.35c-3.79-6.17,1.3-18.24,6.85-22.86
		c0,0,8.76,2.04,1.49,17.13c0,0,14.73-3.41,12.62,12.11c-0.47,3.46-3.61,11.45-3.61,11.45L420.26,397.62z"/>
	<path id="XMLID_173_" class="st6" d="M418.85,376.54c7.27-15.1-1.49-17.13-1.49-17.13c-0.19,0.16-0.38,0.35-0.57,0.53
		c1.16,0.37,7.99,3.22,1.31,17.08c0,0,14.73-3.41,12.62,12.11c-0.39,2.88-2.62,8.87-3.36,10.81l0.5,0.16c0,0,3.14-7.98,3.61-11.45
		C433.58,373.12,418.85,376.54,418.85,376.54z"/>
	<ellipse id="XMLID_70_" class="st7" cx="265.5" cy="283.89" rx="8.84" ry="13.32"/>
	<path id="XMLID_69_" class="st7" d="M252.94,259.62c0,0,7.78-12.2,18.85-5.72c0,0,4.43-3.93-1.25-6.27
		C264.86,245.29,259.3,247.92,252.94,259.62z"/>
	<ellipse id="XMLID_68_" class="st7" cx="350.8" cy="283.89" rx="8.84" ry="13.32"/>
	<path id="XMLID_67_" class="st7" d="M363.36,259.62c0,0-7.78-12.2-18.85-5.72c0,0-4.43-3.93,1.25-6.27
		C351.45,245.29,357,247.92,363.36,259.62z"/>
	<g id="XMLID_58_">
		<g id="XMLID_62_">
			<path id="XMLID_64_" class="st8" d="M290.7,478.36l-0.76-3.81c0.59-0.2,5.85-2.19,4.59-10.83c-2.31-15.89-7.58-40.24-12.6-40.24
				v-3.92c8.82,0,14.06,32.33,15.68,43.47C299.06,472.99,293.72,477.42,290.7,478.36z"/>
			<path id="XMLID_63_" class="st8" d="M291.48,476.46c0.5,2.19-0.01,4.28-2.12,5.03c-2.11,0.75-5.01-0.13-5.5-2.32
				c-0.5-2.19,1.6-4.85,3.7-5.6C289.67,472.83,290.99,474.28,291.48,476.46z"/>
		</g>
		<g id="XMLID_59_">
			<path id="XMLID_61_" class="st8" d="M273.16,478.36l0.76-3.81c-0.59-0.2-5.85-2.19-4.59-10.83c2.31-15.89,7.58-40.24,12.6-40.24
				v-3.92c-8.82,0-14.06,32.33-15.68,43.47C264.8,472.99,270.14,477.42,273.16,478.36z"/>
			<path id="XMLID_60_" class="st8" d="M272.38,476.46c-0.5,2.19,0.01,4.28,2.12,5.03c2.11,0.75,5.01-0.13,5.5-2.32
				c0.5-2.19-1.6-4.85-3.7-5.6S272.87,474.28,272.38,476.46z"/>
		</g>
	</g>
	<g id="XMLID_136_">
		<path id="XMLID_139_" class="st8" d="M325.01,384.19c-2.01-1.81-4.2-3.15-6.56-4.07v2.76c1.73,0.79,3.35,1.86,4.85,3.21
			c13.22,11.93,14.65,42.09,14.65,54.51h2.56C340.5,427.84,338.99,396.8,325.01,384.19z"/>
		<path id="XMLID_160_" class="st8" d="M297.86,382.05c-16.74,9.76-17.2,37.17-17.21,37.5l2.56,0.02c0-0.3,0.43-24.79,14.65-34.48
			V382.05z"/>
	</g>
	<g id="XMLID_3_">
		<polygon id="XMLID_88_" class="st9" points="319.88,380.07 308.15,386.7 314.77,397.09 321.95,387.25 		"/>
		<polygon id="XMLID_87_" class="st9" points="296.42,380.07 308.15,386.7 301.53,397.09 294.35,387.25 		"/>
	</g>
	<circle id="XMLID_55_" class="st10" cx="339.22" cy="448.02" r="7.43"/>
	<circle id="XMLID_54_" class="st11" cx="339.22" cy="448.02" r="3.12"/>
	<path id="XMLID_97_" class="st8" d="M330.08,329.91L330.08,329.91c0,1.9-7.74,5.59-21.93,5.59c-14.19,0-21.93-3.69-21.93-5.59l0,0
		h-1.79v0c0,6.45,15.51,8.15,23.71,8.15c8.2,0,23.72-1.7,23.72-8.15v0H330.08z"/>
	<path id="XMLID_65_" class="st12" d="M379.17,295.17c0,0-3.55,27.87-26.52,45.22c-4.55-25.36-30.18-24.97-43.3-24.89v5.07
		c10.87-0.13,31.27-1.36,32.56,26.34c-8.97,4.28-20.05,7.02-33.75,7.02s-24.77-2.74-33.75-7.02c1.28-27.69,21.69-26.46,32.56-26.34
		v-5.06c-12.78-0.05-38.65-1.06-43.3,24.89c-22.97-17.35-26.52-45.22-26.52-45.22l-7.27,2.04l1.38,8.56c0,0,0.93,30.88,4.57,40.02
		c9.48,23.81,32.07,28.06,72.34,28.06s62.86-4.25,72.34-28.06c3.64-9.14,4.57-40.02,4.57-40.02l1.38-8.56L379.17,295.17z"/>
	<path id="XMLID_92_" class="st13" d="M236.04,207.34c0.22-23.36,53.48-34.38,58.2-35.34c56.18-11.39,69.13,1.84,69.13,1.84
		l1.6-2.65c16.53,1.1,11.24,11.9,11.24,11.9l4.06-4.63c9.13,13.44,0,28.87,0,28.87s16.76,0.81,8.49,58.04l-1.44,9.62l-4.63-3.31
		c0,0-7.71-30.41-3.97-52.23c0,0-23.24-13.88-70.57-13.88s-70.57,13.88-70.57,13.88c3.75,21.82-3.97,52.23-3.97,52.23l-4.63,3.31
		l-1.44-9.62C219.27,208.15,236.04,207.34,236.04,207.34z"/>
	<path id="XMLID_74_" class="st14" d="M449.16,272.82c-11.3-18.58-32.64-12.8-30.69,6.34c1.32,12.99,19.84,27.1,30.69,29.64
		c10.86-2.54,29.37-16.65,30.69-29.64C481.81,260.02,460.46,254.24,449.16,272.82z"/>
	<path id="XMLID_140_" class="st3" d="M237.74,558.87c1.24-18.26,2.99-42.12,4.24-50.87c2.13-14.92,9.21-41.47,9.21-41.47v-64.35
		c-14.67,33.98-23.47,84.6-25.26,106.26c-1,12.06-1.93,28.31-2.65,42.45C227.96,553.78,232.78,556.43,237.74,558.87z"/>
	
		<ellipse id="XMLID_114_" transform="matrix(0.9251 -0.3796 0.3796 0.9251 -78.7453 154.8344)" class="st15" cx="353.22" cy="277.08" rx="2.62" ry="3.84"/>
	
		<ellipse id="XMLID_113_" transform="matrix(0.9251 -0.3796 0.3796 0.9251 -85.1303 122.4552)" class="st15" cx="267.93" cy="277.08" rx="2.62" ry="3.84"/>
	<g id="XMLID_56_">
		<path id="XMLID_57_" class="st15" d="M421.82,285.55c3.53,0,7.84,0,11.38,0l1.65-5.82l3.24,9.13l2.53-3.31
			c11.66,0,23.32,0,34.99,0c2.13,0,2.13-3.31,0-3.31c-11.68,0-24,0-35.68,0l-1.42,1.84l-3.79-10.41l-2.82,8.57c0,0-6.6,0-10.07,0
			C419.69,282.24,419.69,285.55,421.82,285.55L421.82,285.55z"/>
	</g>
</g>
</svg>
