<?xml version="1.0" encoding="utf-8"?>
<!-- Generator: Adobe Illustrator 27.0.0, SVG Export Plug-In . SVG Version: 6.00 Build 0)  -->
<svg version="1.1" id="Layer_1" xmlns="http://www.w3.org/2000/svg" xmlns:xlink="http://www.w3.org/1999/xlink" x="0px" y="0px"
	 viewBox="0 0 595.28 841.89" style="enable-background:new 0 0 595.28 841.89;" xml:space="preserve">
<style type="text/css">
	.st0{fill:#EDF3F9;}
	.st1{fill:#FCC7A0;}
	.st2{fill:#56C1B6;}
	.st3{fill:#232323;}
	.st4{fill:#3AB5AA;}
	.st5{fill:#6E3C23;}
	.st6{fill:#8ED2CD;}
	.st7{fill:#473A3E;}
	.st8{fill:#FFFFFF;}
</style>
<g id="XMLID_167_">
	<circle id="XMLID_50_" class="st0" cx="306.73" cy="394.63" r="159.1"/>
	<rect id="XMLID_138_" x="297.1" y="352.32" class="st1" width="19.26" height="42.27"/>
	<path id="XMLID_137_" class="st1" d="M385.11,263.23c-0.99-0.15-1.98-0.17-2.95-0.09c-1.59-62.61-34.74-84.49-75.42-84.49
		c-40.69,0-73.85,21.29-75.42,84.49c-0.97-0.08-1.96-0.06-2.95,0.09c-8.49,1.29-14.09,10.81-12.5,21.26
		c1.59,10.45,9.76,17.88,18.25,16.59c0.23-0.03,0.44-0.1,0.67-0.14c9.69,40.52,38.24,56.17,71.96,56.17s62.27-15.65,71.96-56.17
		c0.22,0.05,0.44,0.11,0.67,0.14c8.49,1.29,16.66-6.14,18.25-16.59C399.2,274.03,393.6,264.52,385.11,263.23z"/>
	<path id="XMLID_81_" class="st2" d="M306.67,554c17.29,0,33.93-2.78,49.51-7.89V391.5c0-8.2-22.14-14.85-49.44-14.85
		s-49.44,6.65-49.44,14.85v154.65C272.83,551.23,289.42,554,306.67,554z"/>
	<ellipse id="XMLID_118_" class="st3" cx="266.82" cy="280.45" rx="8.27" ry="12.46"/>
	<path id="XMLID_117_" class="st3" d="M255.07,257.75c0,0,7.28-11.41,17.64-5.35c0,0,4.15-3.67-1.17-5.87
		C266.22,244.34,261.02,246.8,255.07,257.75z"/>
	<ellipse id="XMLID_116_" class="st3" cx="346.64" cy="280.45" rx="8.27" ry="12.46"/>
	<path id="XMLID_115_" class="st3" d="M358.39,257.75c0,0-7.28-11.41-17.64-5.35c0,0-4.15-3.67,1.17-5.87
		C347.24,244.34,352.44,246.8,358.39,257.75z"/>
	<path id="XMLID_126_" class="st4" d="M238.31,538.59c0.69-12.88,2.27-40.02,3.76-50.5c1.99-13.96,15.22-36.75,15.22-36.75v-60.21
		c-16.23,26.02-30.22,70.57-32.54,90.77c-1.6,13.93-2.82,32.94-3.59,47.15C226.66,532.57,232.37,535.77,238.31,538.59z"/>
	<path id="XMLID_129_" class="st4" d="M375.16,538.53c5.93-2.83,11.65-6.04,17.14-9.56c-0.77-14.2-1.99-33.17-3.58-47.07
		c-2.32-20.2-16.32-64.75-32.54-90.77v60.21c0,0,13.23,22.79,15.22,36.75C372.89,498.55,374.46,525.63,375.16,538.53z"/>
	<path id="XMLID_122_" class="st1" d="M290.53,377.49l16.14,38.14l16.26-38.14c-5.08-0.53-10.51-0.83-16.19-0.83
		C301.05,376.65,295.61,376.96,290.53,377.49z"/>
	<path id="XMLID_120_" class="st5" d="M229.39,230.53c-0.53,7.77-0.15,18.28,1.92,32.61l1.35,9l4.33-3.09c0,0,5.67-22.36,4.51-41.66
		C235.97,228.57,232,229.7,229.39,230.53z"/>
	<path id="XMLID_121_" class="st5" d="M371.97,227.4c-1.15,19.3,4.51,41.64,4.51,41.64l4.33,3.09l1.35-9
		c2.07-14.31,2.45-24.82,1.92-32.59C381.48,229.72,377.51,228.59,371.97,227.4z"/>
	<path id="XMLID_101_" class="st6" d="M387.73,231.76c-2.94-0.88-24.94-9.96-81-9.97v0c-0.01,0-0.02,0-0.03,0s-0.02,0-0.03,0v0
		c-56.06,0.01-78.06,9.09-81,9.97c-4.12,1.24-2.41,7.68,1.29,5.97c7.27-3.36,28.04-10.29,79.74-10.3c51.7,0,72.47,6.94,79.74,10.3
		C390.14,239.43,391.85,233,387.73,231.76z"/>
	<path id="XMLID_119_" class="st2" d="M384.3,199.59c-11.42-22.46-39.85-29.69-77.57-29.7v0c-0.01,0-0.02,0-0.03,0s-0.02,0-0.03,0v0
		c-37.72,0.01-66.15,7.23-77.57,29.7c-6.2,12.2-3.43,32.17-3.43,32.17c2.94-0.88,24.94-9.97,81.03-9.97
		c56.08,0,78.09,9.09,81.03,9.97C387.73,231.76,390.5,211.79,384.3,199.59z"/>
	<path id="XMLID_100_" class="st7" d="M283.26,322.34c-0.11,0.56-0.19,1.12-0.19,1.7c0,7.77,10.59,14.07,23.66,14.07
		c13.07,0,23.66-6.3,23.66-14.07c0-0.58-0.08-1.14-0.19-1.7H283.26z"/>
	<path id="XMLID_102_" class="st8" d="M283.26,322.34c-0.11,0.56-0.19,1.12-0.19,1.7c0,0.25,0.04,0.5,0.06,0.75
		c4.99,1.47,14.3,2.46,24.99,2.46c8.9,0,16.85-0.69,22.14-1.76c0.08-0.48,0.13-0.96,0.13-1.45c0-0.58-0.08-1.14-0.19-1.7H283.26z"/>
	<polygon id="XMLID_125_" class="st8" points="306.67,415.62 318.32,388.28 295.09,388.28 	"/>
	
		<ellipse id="XMLID_53_" transform="matrix(0.9251 -0.3796 0.3796 0.9251 -77.8404 153.4234)" class="st8" cx="350.1" cy="274.08" rx="2.45" ry="3.59"/>
	
		<ellipse id="XMLID_112_" transform="matrix(0.9251 -0.3796 0.3796 0.9251 -83.8148 123.1264)" class="st8" cx="270.29" cy="274.08" rx="2.45" ry="3.59"/>
</g>
</svg>
