<?xml version="1.0" encoding="utf-8"?>
<!-- Generator: Adobe Illustrator 27.0.0, SVG Export Plug-In . SVG Version: 6.00 Build 0)  -->
<svg version="1.1" id="Layer_1" xmlns="http://www.w3.org/2000/svg" xmlns:xlink="http://www.w3.org/1999/xlink" x="0px" y="0px"
	 viewBox="0 0 595.28 841.89" style="enable-background:new 0 0 595.28 841.89;" xml:space="preserve">
<style type="text/css">
	.st0{fill:#EDF3F9;}
	.st1{fill:#9A6C4C;}
	.st2{fill:#232323;}
	.st3{fill:#8A9BCF;}
	.st4{fill:#473A3E;}
	.st5{fill:#FFFFFF;}
	.st6{fill:#1B1711;}
	.st7{fill:#7389C5;}
</style>
<g id="XMLID_47_">
	<circle id="XMLID_52_" class="st0" cx="301.41" cy="386.09" r="151.91"/>
	<rect id="XMLID_244_" x="295.54" y="345.75" class="st1" width="18.39" height="40.36"/>
	<path id="XMLID_243_" class="st1" d="M379.57,260.68c-0.95-0.14-1.89-0.16-2.82-0.09c-1.52-59.78-33.17-80.67-72.01-80.67
		c-38.85,0-70.51,20.33-72.02,80.67c-0.93-0.07-1.87-0.05-2.82,0.09c-8.11,1.23-13.45,10.32-11.94,20.3
		c1.51,9.98,9.32,17.07,17.42,15.84c0.22-0.03,0.42-0.09,0.64-0.14c9.26,38.69,36.51,53.63,68.71,53.63s59.45-14.94,68.71-53.63
		c0.21,0.04,0.42,0.1,0.64,0.14c8.11,1.23,15.91-5.86,17.42-15.84C393.02,271,387.67,261.92,379.57,260.68z"/>
	<ellipse id="XMLID_241_" class="st2" cx="266.63" cy="277.13" rx="7.9" ry="11.9"/>
	<path id="XMLID_240_" class="st2" d="M255.41,255.45c0,0,6.95-10.9,16.84-5.11c0,0,3.96-3.51-1.12-5.6
		C266.06,242.65,261.09,245,255.41,255.45z"/>
	<ellipse id="XMLID_239_" class="st2" cx="342.84" cy="277.13" rx="7.9" ry="11.9"/>
	<path id="XMLID_238_" class="st2" d="M354.06,255.45c0,0-6.95-10.9-16.84-5.11c0,0-3.96-3.51,1.12-5.6
		C343.42,242.65,348.38,245,354.06,255.45z"/>
	<path id="XMLID_82_" class="st3" d="M306.26,538.99c15.92,0,31.27-2.47,45.69-7.01V383.16c0-7.83-21.14-14.18-47.21-14.18
		s-47.21,6.35-47.21,14.18v147.82C272.82,536.16,289.21,538.99,306.26,538.99z"/>
	<path id="XMLID_224_" class="st1" d="M289.26,369.78l15.41,36.41l15.52-36.41c-4.85-0.51-10.04-0.79-15.46-0.79
		C299.31,368.98,294.12,369.27,289.26,369.78z"/>
	<path id="XMLID_135_" class="st4" d="M282.32,317.12c-0.11,0.53-0.18,1.07-0.18,1.62c0,7.42,10.12,13.44,22.59,13.44
		c12.48,0,22.59-6.02,22.59-13.44c0-0.55-0.07-1.09-0.18-1.62H282.32z"/>
	<path id="XMLID_134_" class="st5" d="M282.32,317.12c-0.11,0.53-0.18,1.07-0.18,1.62c0,0.24,0.04,0.48,0.06,0.72
		c4.76,1.4,13.66,2.35,23.86,2.35c8.49,0,16.09-0.66,21.14-1.68c0.08-0.46,0.12-0.92,0.12-1.39c0-0.55-0.07-1.09-0.18-1.62H282.32z"
		/>
	<path id="XMLID_132_" class="st5" d="M350.41,335.94c0,0,16-10.49,23.03-39.26c0,0-3.84,29.77-21.83,41.92L350.41,335.94z"/>
	<path id="XMLID_128_" class="st5" d="M259,335.94c0,0-16-10.49-23.03-39.26c0,0,3.84,29.77,21.83,41.92L259,335.94z"/>
	<polygon id="XMLID_124_" class="st5" points="304.67,406.19 315.8,380.08 293.62,380.08 	"/>
	<path id="XMLID_104_" class="st6" d="M378.59,229.48c-1.04-0.33-2.33-0.72-3.85-1.13c0,0-0.74-55.3-68.48-55.3
		c-67.74,0-71.56,55.29-71.56,55.29l0,0c-1.5,0.41-2.77,0.79-3.81,1.12c-0.51,7.41-0.14,17.46,1.83,31.13l1.29,8.6l4.13-2.95
		c0,0,5.41-21.35,4.31-39.77c0,0,64.05,10.61,124.57,0.01c-1.1,18.42,4.31,39.76,4.31,39.76l4.13,2.95l1.29-8.6
		C378.73,246.93,379.09,236.89,378.59,229.48z"/>
	<path id="XMLID_106_" class="st7" d="M376.65,437.88c-5.82-18.89-15.35-40.07-24.7-55.07v57.49c0,0,0.97,3.54,2.89,9.89
		L376.65,437.88z"/>
	<path id="XMLID_98_" class="st7" d="M232.83,437.88c5.82-18.89,15.35-40.07,24.7-55.07v57.49c0,0-0.97,3.54-2.89,9.89
		L232.83,437.88z"/>
	<path id="XMLID_105_" class="st1" d="M236.64,522.1c0.01-15.77,2.33-41.88,3.62-50.89c1.13-7.89,3.46-17.5,7.26-25.03l-13.81-7.79
		c-3.78,12.3-6.38,23.5-7.25,31.1c-1.23,10.75-2.23,30.6-2.95,44.97C227.74,517.21,232.12,519.77,236.64,522.1z"/>
	<path id="XMLID_109_" class="st1" d="M372.83,523.65c4.54-2.22,8.96-4.66,13.24-7.31c-0.73-14.47-1.76-35.63-3.05-46.86
		c-0.87-7.59-3.48-18.79-7.25-31.1l-13.81,7.79c3.8,7.54,6.13,17.15,7.26,25.03C370.54,480.51,372.98,508.09,372.83,523.65z"/>
	
		<ellipse id="XMLID_79_" transform="matrix(0.9251 -0.3796 0.3796 0.9251 -76.9171 151.3732)" class="st5" cx="345.36" cy="270.72" rx="2.34" ry="3.43"/>
	
		<ellipse id="XMLID_49_" transform="matrix(0.9251 -0.3796 0.3796 0.9251 -82.6215 122.4457)" class="st5" cx="269.16" cy="270.72" rx="2.34" ry="3.43"/>
</g>
</svg>
